<?xml version="1.0" standalone="no"?>
<!DOCTYPE svg PUBLIC "-//W3C//DTD SVG 20010904//EN"
 "http://www.w3.org/TR/2001/REC-SVG-20010904/DTD/svg10.dtd">
<svg version="1.0" xmlns="http://www.w3.org/2000/svg"
 width="1024.000000pt" height="1536.000000pt" viewBox="0 0 1024.000000 1536.000000"
 preserveAspectRatio="xMidYMid meet">

<g transform="translate(0.000000,1536.000000) scale(0.100000,-0.100000)"
fill="#000000" stroke="none">
<path d="M4920 11793 c-1120 -58 -2152 -550 -2875 -1373 -569 -648 -939 -1486
-1027 -2330 -17 -163 -17 -658 0 -815 75 -693 286 -1289 658 -1855 562 -856
1460 -1501 2430 -1744 364 -91 597 -119 989 -120 321 0 445 10 735 60 582 100
1141 333 1624 677 438 311 843 738 1124 1182 318 504 521 1067 603 1670 27
196 37 654 19 858 -60 696 -303 1381 -705 1987 -491 739 -1240 1311 -2090
1597 -439 148 -1031 230 -1485 206z m150 -364 c176 -40 226 -293 75 -375 l-33
-17 84 -114 84 -113 -88 0 -87 1 -63 99 c-53 84 -68 100 -89 100 l-25 0 3
-102 4 -103 -77 -3 -78 -3 0 118 c0 65 -3 209 -7 321 l-6 202 129 0 c71 0 149
-5 174 -11z m690 -45 c36 -19 63 -44 82 -73 15 -25 28 -47 28 -50 0 -4 -27
-16 -61 -27 l-60 -22 -9 24 c-20 52 -114 82 -152 47 -44 -39 -15 -80 98 -136
71 -36 127 -88 145 -134 16 -42 10 -107 -13 -153 -18 -35 -35 -51 -78 -73 -50
-26 -63 -28 -132 -24 -105 5 -179 42 -226 111 -18 27 -29 52 -25 56 8 7 101
40 113 40 4 0 12 -11 18 -25 14 -30 82 -64 127 -65 43 0 75 25 75 59 0 35 -15
49 -115 104 -118 65 -160 138 -141 241 23 122 191 174 326 100z m-1214 -45 c6
-33 8 -62 5 -64 -3 -1 -46 -10 -96 -19 -49 -9 -102 -19 -116 -22 l-26 -5 13
-55 c7 -31 14 -58 17 -60 2 -2 50 5 107 16 57 11 105 18 107 17 6 -6 23 -110
19 -115 -3 -2 -53 -13 -111 -24 -75 -15 -105 -24 -101 -33 2 -7 8 -33 11 -59
4 -25 10 -48 14 -50 3 -2 49 5 101 15 142 28 136 30 147 -43 6 -35 10 -63 9
-64 -4 -4 -369 -74 -372 -72 -5 5 -133 623 -130 626 6 5 339 70 367 71 23 1
26 -3 35 -60z m1710 -84 c-2 -5 -45 -138 -97 -295 -51 -157 -94 -286 -94 -287
-2 -7 -140 36 -139 43 1 5 45 140 98 300 l96 291 70 -21 c39 -11 68 -25 66
-31z m-2306 -7 c1 -18 7 -168 14 -333 8 -165 12 -303 10 -306 -2 -3 -37 -18
-79 -34 l-75 -27 -24 29 c-14 17 -108 131 -210 254 l-185 224 62 32 c34 18 65
32 68 33 3 0 72 -83 153 -185 82 -102 149 -185 150 -183 2 3 -2 80 -19 374
l-6 112 63 20 c35 11 66 20 71 21 4 1 7 -14 7 -31z m2806 -194 c97 -65 153
-178 141 -285 -18 -146 -136 -264 -278 -276 -69 -7 -159 18 -281 77 -45 22
-88 40 -95 40 -7 0 -13 2 -13 5 0 3 59 133 131 289 l131 284 104 -48 c57 -27
130 -66 160 -86z m-3373 -364 c86 -137 158 -254 159 -260 3 -11 -109 -87 -115
-79 -2 2 -76 120 -165 261 l-161 257 57 36 c31 19 59 35 63 35 3 0 76 -112
162 -250z m-260 -249 c86 -102 157 -188 157 -191 0 -3 -24 -24 -54 -47 l-53
-42 -212 68 c-116 38 -211 66 -211 64 0 -3 50 -65 110 -139 61 -74 110 -137
110 -142 0 -4 -22 -29 -49 -56 l-48 -47 -45 53 c-24 29 -113 138 -197 242
l-154 189 39 34 c82 71 59 71 274 -2 106 -36 199 -65 207 -65 11 0 -53 83
-204 261 -12 15 -8 22 34 62 l48 46 45 -51 c25 -29 116 -135 203 -237z m4267
233 l68 -56 -29 -87 c-15 -47 -60 -186 -99 -308 -39 -123 -73 -223 -76 -223
-3 0 -33 21 -67 47 -34 25 -63 47 -65 48 -1 1 9 26 22 56 l24 54 -92 67 -91
66 -47 -35 -48 -35 -60 48 -60 47 267 183 c146 101 270 184 275 184 5 0 40
-25 78 -56z m-1910 -178 c342 -51 626 -138 909 -280 765 -384 1340 -1139 1515
-1989 46 -224 59 -375 53 -647 -5 -254 -16 -347 -63 -560 -88 -394 -276 -787
-530 -1105 -490 -613 -1196 -992 -1987 -1066 -182 -17 -535 -7 -701 20 -660
107 -1200 387 -1657 859 -406 418 -659 933 -751 1527 -18 114 -22 186 -22 385
-1 256 6 333 50 562 177 918 830 1725 1694 2091 232 98 535 179 770 206 52 6
111 13 130 15 79 9 490 -4 590 -18z m2387 -280 c111 -117 144 -176 151 -266 7
-101 -16 -160 -92 -236 -103 -102 -210 -119 -343 -54 -52 26 -80 51 -167 149
l-104 118 226 192 c124 105 229 191 233 191 4 0 47 -42 96 -94z m-5429 -137
c166 -123 209 -162 233 -214 24 -53 25 -147 0 -200 -23 -51 -114 -143 -160
-162 -48 -21 -122 -18 -176 6 -35 16 -271 199 -342 265 -8 8 1 24 37 65 l48
54 145 -122 c167 -139 201 -158 250 -137 77 32 109 115 66 170 -12 15 -92 81
-178 148 -86 67 -158 122 -160 124 -5 5 81 104 91 104 5 0 70 -46 146 -101z
m3587 -5403 c95 -45 95 -45 34 -103 l-52 -50 -35 23 c-39 27 -59 29 -115 13
-43 -12 -63 -43 -53 -83 9 -38 40 -49 162 -57 150 -9 211 -41 249 -131 64
-154 -58 -308 -257 -325 -87 -7 -147 10 -199 56 l-41 36 56 49 57 48 25 -23
c21 -20 36 -24 89 -24 93 0 137 37 121 101 -9 36 -40 46 -156 54 -112 7 -152
21 -203 69 -55 51 -75 121 -56 198 16 60 86 133 150 156 69 24 164 21 224 -7z
m-1499 -21 c162 -79 244 -253 200 -425 -31 -119 -100 -198 -214 -240 -289
-108 -580 127 -508 410 23 91 83 178 158 231 94 67 254 78 364 24z m778 -85
c59 -19 79 -31 131 -83 81 -81 99 -132 93 -261 -5 -110 -26 -164 -94 -236 -25
-27 -72 -62 -103 -77 -54 -26 -64 -28 -238 -31 l-183 -4 0 363 0 362 163 -6
c127 -4 177 -10 231 -27z"/>
<path d="M4928 11219 l3 -91 52 5 c92 8 128 88 68 148 -24 24 -38 29 -78 29
l-48 0 3 -91z"/>
<path d="M6567 11003 c-13 -21 -147 -326 -145 -329 14 -13 118 -44 151 -44
148 0 233 185 135 296 -17 19 -53 46 -79 60 -53 27 -56 27 -62 17z"/>
<path d="M7177 10475 c-49 -35 -87 -67 -85 -72 1 -4 28 -27 59 -50 l57 -42 11
27 c10 24 61 191 61 199 0 9 -23 -5 -103 -62z"/>
<path d="M4815 10244 c-212 -26 -525 -100 -525 -125 0 -13 240 -652 249 -661
4 -4 117 37 251 91 l245 98 3 307 2 306 -52 -1 c-29 -1 -107 -8 -173 -15z"/>
<path d="M5190 9952 l0 -308 238 -98 c130 -53 241 -98 245 -99 5 -1 69 150
142 336 l133 338 -26 11 c-112 44 -443 107 -649 123 l-83 6 0 -309z"/>
<path d="M4050 10041 c-170 -74 -441 -237 -547 -328 l-32 -28 215 -235 c118
-129 218 -238 223 -243 5 -5 107 31 248 88 131 53 239 98 241 100 4 4 -252
685 -258 684 -3 0 -43 -17 -90 -38z"/>
<path d="M6090 10061 c0 -8 71 -33 77 -27 2 1 -15 10 -37 19 -22 8 -40 12 -40
8z"/>
<path d="M6041 9939 c-6 -18 -9 -34 -7 -36 2 -2 9 10 15 28 6 18 9 34 7 36 -2
2 -9 -10 -15 -28z"/>
<path d="M6300 9965 c0 -2 18 -14 40 -25 22 -11 40 -18 40 -15 0 2 -18 14 -40
25 -22 11 -40 18 -40 15z"/>
<path d="M6016 9875 c-9 -26 -7 -32 5 -12 6 10 9 21 6 23 -2 3 -7 -2 -11 -11z"/>
<path d="M6490 9857 c0 -3 12 -12 26 -22 15 -9 23 -12 20 -6 -7 11 -46 35 -46
28z"/>
<path d="M5986 9805 c-9 -26 -7 -32 5 -12 6 10 9 21 6 23 -2 3 -7 -2 -11 -11z"/>
<path d="M6550 9817 c0 -3 12 -12 26 -22 15 -9 23 -12 20 -6 -7 11 -46 35 -46
28z"/>
<path d="M6655 9740 c10 -11 20 -20 23 -20 3 0 -3 9 -13 20 -10 11 -20 20 -23
20 -3 0 3 -9 13 -20z"/>
<path d="M5956 9725 c-9 -26 -7 -32 5 -12 6 10 9 21 6 23 -2 3 -7 -2 -11 -11z"/>
<path d="M6710 9695 c13 -14 26 -25 28 -25 3 0 -5 11 -18 25 -13 14 -26 25
-28 25 -3 0 5 -11 18 -25z"/>
<path d="M5936 9675 c-9 -26 -7 -32 5 -12 6 10 9 21 6 23 -2 3 -7 -2 -11 -11z"/>
<path d="M6675 9608 l-40 -43 43 40 c39 36 47 45 39 45 -2 0 -21 -19 -42 -42z"/>
<path d="M5916 9625 c-9 -26 -7 -32 5 -12 6 10 9 21 6 23 -2 3 -7 -2 -11 -11z"/>
<path d="M3249 9483 c-58 -60 -135 -145 -171 -190 -100 -125 -203 -282 -192
-293 5 -5 128 -76 274 -158 146 -82 297 -167 337 -190 l72 -40 21 35 c11 20
20 36 18 37 -2 1 -47 28 -101 60 -53 31 -104 68 -113 80 -37 58 -23 136 30
171 12 8 93 44 180 79 l156 64 -107 119 c-60 66 -150 166 -202 224 -52 57 -95
105 -96 107 -1 1 -49 -46 -106 -105z"/>
<path d="M5896 9575 c-9 -26 -7 -32 5 -12 6 10 9 21 6 23 -2 3 -7 -2 -11 -11z"/>
<path d="M6675 9360 c-110 -122 -199 -225 -198 -227 1 -3 70 -34 153 -68 83
-35 161 -71 172 -82 30 -26 49 -78 42 -111 -15 -61 -35 -81 -138 -143 l-104
-63 21 -37 c12 -21 24 -36 27 -34 3 1 151 85 330 185 179 100 335 189 347 196
23 14 23 14 -48 118 -87 129 -211 284 -321 400 l-83 89 -200 -223z"/>
<path d="M6576 9502 c-49 -56 -49 -56 -7 -17 35 33 70 77 59 74 -2 0 -25 -26
-52 -57z"/>
<path d="M5080 9493 c-72 -26 -981 -387 -1183 -469 -284 -115 -327 -134 -327
-145 0 -3 48 -31 106 -61 l106 -54 -1 -143 -2 -143 -29 -25 c-53 -44 -52 -124
1 -173 l30 -27 -40 -174 c-23 -96 -43 -183 -46 -195 -4 -17 6 -25 57 -50 l61
-29 -6 -350 c-4 -192 -10 -544 -14 -781 l-6 -431 89 13 c49 7 159 19 245 25
332 25 615 -28 744 -138 29 -24 29 -25 5 -19 -130 31 -752 32 -955 1 -140 -21
-208 -17 -240 16 l-24 24 11 673 c6 370 8 675 5 678 -3 4 -28 -4 -54 -17 -36
-18 -49 -31 -55 -54 -16 -66 -139 -1223 -150 -1414 -3 -53 -2 -56 31 -78 24
-16 48 -23 81 -23 26 0 81 -3 123 -6 l76 -7 -120 -137 c-65 -76 -119 -140
-119 -143 0 -10 225 -156 334 -216 111 -61 306 -151 329 -151 7 0 34 60 60
133 26 72 78 218 116 322 l68 190 174 7 c96 4 188 9 205 12 25 3 37 -1 54 -19
48 -51 105 -68 243 -73 l127 -4 0 -376 0 -375 108 7 c200 13 460 58 593 102
l46 15 -102 272 c-57 150 -117 308 -134 352 -17 44 -31 82 -31 85 0 3 39 4 87
2 l88 -3 102 -277 c57 -152 111 -299 120 -325 16 -43 20 -47 43 -42 39 9 275
127 370 185 104 64 250 168 250 179 0 5 -51 69 -114 142 l-115 134 57 6 c31 4
86 7 122 8 46 1 75 7 99 22 l33 20 -7 97 c-5 85 -44 530 -62 726 l-6 70 34
-20 c19 -11 166 -103 327 -203 165 -103 297 -179 304 -175 7 4 8 3 4 -4 -4 -7
-3 -12 2 -12 9 0 93 172 135 275 46 112 125 381 115 390 -1 1 -57 14 -123 29
-66 14 -241 53 -390 86 -148 33 -273 60 -277 60 -4 0 -8 -10 -8 -22 0 -27 -68
-230 -103 -308 l-24 -55 -6 40 c-4 22 -16 135 -28 250 -11 116 -25 226 -30
245 -9 39 -42 63 -98 74 l-34 6 7 -372 c3 -205 9 -510 12 -678 l6 -305 -25
-24 c-35 -32 -91 -36 -235 -17 -67 9 -190 20 -274 25 -162 8 -579 -3 -663 -18
-57 -10 -67 -7 -39 14 161 122 474 170 844 130 74 -8 159 -19 189 -25 30 -5
56 -8 58 -6 2 2 -1 266 -7 587 -5 321 -10 672 -10 780 l0 197 -52 20 c-78 30
-114 40 -208 56 -367 63 -718 -3 -967 -181 l-73 -52 -65 49 c-115 87 -278 156
-439 185 -166 29 -276 29 -538 -1 l-57 -7 -25 84 c-14 46 -38 131 -54 189
l-28 106 33 30 c27 26 33 39 33 73 0 46 -21 95 -45 104 -12 5 -15 28 -15 127
0 66 2 120 5 120 3 0 32 -13 64 -30 54 -27 260 -120 266 -120 2 0 5 31 7 70 3
56 8 74 28 96 71 76 220 130 530 193 291 59 272 58 475 21 312 -56 532 -119
618 -176 55 -36 77 -78 77 -146 0 -32 4 -58 9 -58 5 0 96 41 203 91 106 49
257 120 336 157 78 36 142 69 142 72 0 9 -1538 621 -1557 619 -4 0 -15 -3 -23
-6z m-619 -1804 c232 -23 384 -85 512 -208 l47 -45 0 -578 0 -578 -46 35
c-104 79 -248 140 -405 170 -159 30 -434 30 -586 -1 l-29 -6 3 279 c2 153 6
418 9 590 l6 311 67 12 c65 12 197 26 277 29 23 0 88 -4 145 -10z m1669 -15
c48 -8 92 -19 100 -24 11 -7 15 -115 21 -586 5 -318 8 -579 6 -580 -1 -1 -49
4 -107 12 -198 26 -417 14 -599 -32 -109 -27 -258 -97 -319 -150 l-42 -36 0
585 0 584 48 45 c120 112 290 177 527 202 71 7 277 -4 365 -20z m617 -796 c-3
-8 -6 -5 -6 6 -1 11 2 17 5 13 3 -3 4 -12 1 -19z"/>
<path d="M4162 7500 c-31 -13 -46 -49 -33 -82 l10 -27 158 1 c201 0 328 -24
456 -88 58 -29 69 -29 90 -6 22 24 22 65 -1 85 -29 26 -130 67 -232 94 -78 21
-124 26 -260 29 -94 2 -175 0 -188 -6z"/>
<path d="M4153 7200 c-28 -12 -39 -53 -24 -87 l12 -26 98 6 c180 11 381 -23
502 -83 68 -35 80 -36 102 -12 27 29 21 68 -13 92 -42 30 -137 67 -233 91 -92
23 -404 37 -444 19z"/>
<path d="M4170 6911 c-14 -4 -32 -19 -40 -34 -13 -24 -13 -30 0 -54 l16 -28
125 3 c192 6 338 -22 473 -89 33 -16 65 -29 72 -29 40 0 59 74 27 102 -59 52
-237 111 -386 127 -106 12 -248 13 -287 2z"/>
<path d="M5706 7499 c-127 -19 -313 -85 -344 -122 -18 -21 -11 -77 10 -90 12
-8 33 -3 85 21 135 62 199 74 416 79 l198 5 10 25 c13 35 12 41 -16 68 -23 24
-28 25 -162 24 -76 -1 -165 -5 -197 -10z"/>
<path d="M5675 7194 c-156 -28 -304 -87 -323 -129 -13 -29 -1 -72 23 -82 9 -3
46 8 83 25 143 66 331 97 514 85 l97 -6 12 26 c16 35 4 76 -27 87 -37 15 -287
10 -379 -6z"/>
<path d="M5745 6910 c-160 -21 -357 -93 -389 -143 -19 -28 -8 -73 19 -83 9 -4
52 10 95 30 135 61 221 78 420 82 152 3 176 5 187 20 17 23 16 55 0 79 -12 15
-31 18 -138 21 -68 1 -155 -1 -194 -6z"/>
<path d="M5856 9475 c-9 -26 -7 -32 5 -12 6 10 9 21 6 23 -2 3 -7 -2 -11 -11z"/>
<path d="M6515 9432 c-5 -4 -28 -28 -50 -52 l-40 -45 53 50 c28 27 52 51 52
52 0 5 -4 3 -15 -5z"/>
<path d="M5830 9395 c0 -8 4 -15 10 -15 5 0 7 7 4 15 -4 8 -8 15 -10 15 -2 0
-4 -7 -4 -15z"/>
<path d="M5870 9372 c8 -5 26 -13 40 -16 17 -5 20 -4 10 2 -8 5 -26 13 -40 16
-17 5 -20 4 -10 -2z"/>
<path d="M5980 9330 c8 -5 20 -10 25 -10 6 0 3 5 -5 10 -8 5 -19 10 -25 10 -5
0 -3 -5 5 -10z"/>
<path d="M6370 9276 l-44 -51 52 50 c29 27 52 51 52 52 0 12 -22 -7 -60 -51z"/>
<path d="M6100 9282 c8 -5 26 -13 40 -16 17 -5 20 -4 10 2 -8 5 -26 13 -40 16
-17 5 -20 4 -10 -2z"/>
<path d="M6180 9250 c8 -5 20 -10 25 -10 6 0 3 5 -5 10 -8 5 -19 10 -25 10 -5
0 -3 -5 5 -10z"/>
<path d="M6281 9209 c17 -11 39 -12 39 -1 0 4 -12 8 -27 9 -19 1 -22 -1 -12
-8z"/>
<path d="M2757 8783 c-88 -174 -195 -482 -209 -598 l-3 -29 150 -22 c161 -23
547 -81 607 -90 36 -6 37 -6 48 37 20 83 79 254 110 324 37 83 53 63 -150 177
-207 116 -440 247 -477 270 l-32 19 -44 -88z"/>
<path d="M7395 8841 c-6 -5 -156 -91 -335 -191 -179 -100 -328 -185 -332 -189
-5 -4 12 -57 37 -118 24 -62 57 -156 72 -210 15 -54 28 -99 29 -101 1 -2 182
23 403 54 l401 58 -6 35 c-28 158 -106 394 -181 554 -54 112 -67 128 -88 108z"/>
<path d="M4890 8791 c-222 -44 -389 -91 -472 -133 -30 -14 -38 -24 -38 -46 -1
-15 -9 -130 -19 -257 -10 -126 -18 -231 -17 -232 1 -1 38 4 81 12 245 44 486
-7 625 -132 26 -24 50 -43 53 -43 3 0 27 18 53 41 67 55 194 115 286 133 94
19 249 20 343 2 39 -8 72 -12 74 -11 4 4 -26 420 -35 476 -5 33 -11 39 -62 62
-84 38 -246 83 -422 117 -222 44 -276 45 -450 11z"/>
<path d="M2504 7913 c-12 -136 -9 -429 5 -543 7 -52 14 -96 16 -98 3 -3 681
133 770 154 19 5 20 13 20 234 l0 230 -30 5 c-16 3 -183 28 -370 55 -187 28
-354 53 -371 56 l-32 6 -8 -99z"/>
<path d="M7282 7931 l-383 -56 -2 -218 -2 -218 35 -9 c19 -4 62 -14 95 -20 33
-7 195 -41 359 -76 164 -35 300 -63 302 -61 2 1 8 45 15 97 14 117 17 369 6
513 -8 90 -12 107 -25 106 -10 -1 -189 -26 -400 -58z"/>
<path d="M2933 7197 c-211 -45 -383 -85 -383 -88 0 -4 51 5 113 19 61 13 128
25 149 26 20 0 34 4 32 7 -2 3 70 20 159 38 89 18 191 39 227 47 114 26 110
26 110 6 0 -28 53 -177 98 -277 58 -125 52 -96 -8 44 -27 64 -57 149 -67 188
-13 51 -22 73 -33 72 -8 -1 -187 -38 -397 -82z"/>
<path d="M3080 7179 c0 -5 5 -7 10 -4 6 3 10 8 10 11 0 2 -4 4 -10 4 -5 0 -10
-5 -10 -11z"/>
<path d="M3113 7153 c0 -9 4 -10 14 -2 7 6 13 12 13 14 0 1 -6 2 -13 2 -8 0
-14 -6 -14 -14z"/>
<path d="M3195 7121 c-3 -5 -2 -12 3 -15 5 -3 9 1 9 9 0 17 -3 19 -12 6z"/>
<path d="M2561 7079 c-2 -29 59 -230 105 -347 46 -115 130 -292 139 -292 2 0
61 35 129 78 69 42 220 135 336 206 116 70 209 130 206 133 -3 3 -17 -4 -33
-15 -68 -48 -216 -131 -224 -126 -5 3 -8 0 -7 -8 2 -8 -6 -12 -22 -11 -14 1
-19 -1 -12 -4 15 -6 -14 -26 -152 -107 -55 -33 -127 -76 -160 -98 l-60 -39
-30 58 c-72 144 -136 314 -200 538 -7 28 -14 43 -15 34z"/>
<path d="M2900 7060 c-9 -6 -10 -10 -3 -10 6 0 15 5 18 10 8 12 4 12 -15 0z"/>
<path d="M7632 10012 l-133 -116 58 -57 c93 -90 177 -99 259 -27 91 80 90 183
-4 281 -20 20 -39 37 -42 37 -3 -1 -65 -53 -138 -118z"/>
<path d="M4306 4525 c-83 -29 -135 -110 -136 -208 0 -70 17 -112 61 -153 62
-57 150 -70 227 -33 79 39 121 138 102 240 -14 71 -45 114 -104 144 -56 28
-93 31 -150 10z"/>
<path d="M5080 4234 l0 -217 68 5 c134 10 203 75 210 198 9 145 -76 230 -230
230 l-48 0 0 -216z"/>
</g>
</svg>
